Coordinates
version=1
nRows=18
nColumns=28
inDegrees=yes

Units are S.I. units (second, meters, Newtons, ...)
Angles are in degrees.

endheader
time	pelvis_tilt	pelvis_list	pelvis_rotation	pelvis_tx	pelvis_ty	pelvis_tz	hip_flexion_r	hip_adduction_r	hip_rotation_r	knee_angle_r	ankle_angle_r	subtalar_angle_r	mtp_angle_r	hip_flexion_l	hip_adduction_l	hip_rotation_l	knee_angle_l	socket_flexion	socket_adduction	socket_rotation	socket_tx	socket_ty	socket_tz	foot_flex	lumbar_extension	lumbar_bending	lumbar_rotation
      0.31666667	      0.91672062	      5.66867704	      4.31614725	     -0.46769523	      1.03533936	      0.27463563	     15.09771462	     -9.11458423	     -7.83035211	    -65.96844284	     10.83466840	    -11.54110532	     -0.77822019	      3.56667007	     11.92191913	      5.36822928	     -9.92206981	     -1.57602444	     -1.48629765	      5.55932279	      0.00000000	     -0.00975560	      0.00000000	      0.80595261	    -13.17338561	     -8.05987557	     -5.11505075
      0.32083333	      0.96061788	      5.65496235	      4.41102182	     -0.46249982	      1.03595906	      0.27460293	     15.60887095	     -9.14310070	     -7.80970623	    -65.59722716	     10.93287818	    -11.48669561	     -0.76405724	      3.18264784	     11.87102227	      5.41876345	     -9.95175402	     -1.66689402	     -1.48308026	      5.62852500	      0.00000000	     -0.00951583	      0.00000000	      0.87425480	    -13.26725158	     -8.02931398	     -5.13898797
      0.32500000	      1.76088143	      5.37948423	      4.74243446	     -0.45657813	      1.03774314	      0.27399275	     14.93670173	     -8.98154315	     -8.33615997	    -64.81695702	     12.20573066	     -9.89970106	     -0.98940451	      1.52598202	     11.45248923	      5.85254655	     -8.90163377	     -1.12399416	     -1.44028330	      5.86875213	      0.00000000	     -0.00984049	      0.00000000	      1.06877455	    -14.10658909	     -7.47782418	     -5.81648683
      0.32916667	      1.79229116	      5.37385761	      4.81482561	     -0.45146182	      1.03821306	      0.27399208	     15.47013952	     -9.03059959	     -8.32613981	    -64.42282769	     12.27556278	     -9.89674875	     -0.98572281	      1.17214368	     11.41059802	      5.88264280	     -8.94183515	     -1.21116574	     -1.43893047	      5.90296336	      0.00000000	     -0.00968805	      0.00000000	      1.12528255	    -14.19579624	     -7.44959206	     -5.82207394
      0.33333333	      1.79248127	      5.13477006	      5.02104936	     -0.44575554	      1.03882090	      0.27383290	     15.81297796	     -8.78646048	     -8.42684912	    -63.71940319	     12.83329997	     -9.70954709	     -0.94840117	      0.73553917	     11.08733782	      5.95035276	     -8.75691984	     -1.15326681	     -1.42146354	      6.15572879	      0.00000000	     -0.00970445	      0.00000000	      1.36645058	    -14.11122465	     -7.15322788	     -5.92711344
      0.33750000	      1.83377486	      5.05941284	      5.14298708	     -0.44044292	      1.03937380	      0.27382346	     16.21680223	     -8.72415972	     -8.43828340	    -63.09772015	     13.04035845	     -9.58632625	     -0.95480951	      0.32150916	     10.95267001	      6.00979683	     -8.70943258	     -1.19797857	     -1.42139609	      6.27041755	      0.00000000	     -0.00953708	      0.00000000	      1.43986379	    -14.14136818	     -7.04380488	     -5.99607696
      0.34166667	      2.01134308	      4.70229213	      5.36024124	     -0.43476813	      1.04000721	      0.27348283	     16.35134871	     -8.42567884	     -8.73919712	    -62.35383905	     13.59922551	     -9.16065293	     -1.03915896	     -0.34940646	     10.48680830	      6.05553267	     -8.36651891	     -1.06607441	     -1.39888495	      6.56001182	      0.00000000	     -0.01000276	      0.00000000	      1.55714744	    -14.26833498	     -6.51908740	     -6.26488562
      0.34583333	      2.58229801	      4.62159858	      5.48224623	     -0.42943213	      1.04127469	      0.27340032	     16.08210048	     -8.36104549	     -8.91516380	    -61.58834802	     14.13716821	     -8.85043868	     -2.38971852	     -1.68811978	     10.27353671	      6.61295167	     -7.29376224	     -0.47633895	     -1.30056988	      6.28202467	      0.00000000	     -0.00998490	      0.00000000	      1.67039415	    -14.92587546	     -6.31495009	     -6.44333973
      0.35000000	      2.60007783	      4.63130492	      5.53063190	     -0.42443537	      1.04149130	      0.27341425	     16.59513904	     -8.43941665	     -8.92240867	    -61.06634155	     14.21731246	     -8.85657424	     -2.38800177	     -2.01268578	     10.24458427	      6.63346100	     -7.33961860	     -0.55788191	     -1.30205067	      6.31280256	      0.00000000	     -0.00993648	      0.00000000	      1.72332470	    -15.01361969	     -6.29514665	     -6.45094599
      0.35416667	      2.67315175	      4.31623995	      5.81687234	     -0.41864379	      1.04213924	      0.27314383	     16.69860484	     -8.13177896	     -9.18683142	    -60.03345393	     14.68145427	     -8.70403842	     -2.54652336	     -2.52374319	      9.81073088	      6.66969283	     -7.15251099	     -0.51390136	     -1.29289643	      6.64929856	      0.00000000	     -0.01003546	      0.00000000	      1.89329930	    -14.96603891	     -5.86058392	     -6.72340091
      0.35833333	      2.68231732	      4.33919040	      5.91274074	     -0.41342157	      1.04246108	      0.27315053	     17.08343819	     -8.19788049	     -9.19651566	    -59.29058369	     14.83044960	     -8.73873121	     -2.56099647	     -2.86193960	      9.78743740	      6.69454332	     -7.18071694	     -0.57509469	     -1.30821283	      6.70852035	      0.00000000	     -0.00976775	      0.00000000	      2.00521146	    -14.98727392	     -5.87538224	     -6.73897748
      0.36250000	      2.76585993	      4.15574414	      6.14922125	     -0.40791772	      1.04284875	      0.27291971	     17.27113942	     -8.08878625	     -9.49723028	    -58.40450797	     15.22399423	     -8.83996305	     -2.66269467	     -3.35376022	      9.50014607	      6.70480042	     -7.03903071	     -0.54051607	     -1.30867119	      7.02921364	      0.00000000	     -0.00988788	      0.00000000	      2.17712476	    -15.03254654	     -5.60359186	     -6.87626346
      0.36666667	      2.81507551	      4.13237852	      6.24702682	     -0.40262333	      1.04318830	      0.27300741	     17.55225075	     -8.08392003	     -9.54369874	    -57.53683952	     15.35359303	     -8.86734922	     -2.73589891	     -3.75437338	      9.40435131	      6.72642095	     -7.02368638	     -0.60953039	     -1.30572203	      7.11731951	      0.00000000	     -0.00969679	      0.00000000	      2.28042330	    -15.07438253	     -5.57306731	     -6.95288825
      0.37083333	      2.82836682	      4.13993501	      6.34906465	     -0.39746807	      1.04345437	      0.27298807	     17.87511030	     -8.13372284	     -9.59224860	    -56.65220790	     15.50563216	     -8.92524905	     -2.77384578	     -4.09476883	      9.36189625	      6.72622981	     -7.03180271	     -0.63634064	     -1.32940320	      7.19145358	      0.00000000	     -0.00949314	      0.00000000	      2.37986769	    -15.10889617	     -5.53767997	     -6.99346476
      0.37500000	      3.51622027	      3.77553723	      6.59155172	     -0.39207128	      1.04468730	      0.27274800	     17.25801363	     -7.74252716	    -10.04545145	    -55.42614300	     15.79935717	     -9.29215177	     -3.82173809	     -5.34152974	      8.77125681	      6.76433770	     -6.53239504	     -0.43483295	     -1.28325120	      7.54959787	      0.00000000	     -0.00985121	      0.00000000	      2.51558795	    -15.84680885	     -4.93795900	     -7.36000384
      0.37916667	      3.48422527	      3.82072644	      6.64972231	     -0.38694102	      1.04474745	      0.27283543	     17.63194457	     -7.83619098	    -10.08067818	    -54.53320496	     15.94524720	     -9.33382417	     -3.85172477	     -5.62896708	      8.77071110	      6.77333060	     -6.54808821	     -0.47176854	     -1.29560845	      7.59777546	      0.00000000	     -0.00968350	      0.00000000	      2.62074120	    -15.83125633	     -4.98038476	     -7.36398556
      0.38333333	      3.43555247	      3.82835266	      6.77534247	     -0.38161398	      1.04484184	      0.27285658	     17.94393060	     -7.89595704	    -10.18195466	    -53.53502298	     16.13892034	     -9.44748470	     -3.90428269	     -5.93530610	      8.70940536	      6.78520391	     -6.50867291	     -0.50589315	     -1.30221136	      7.72147122	      0.00000000	     -0.00945583	      0.00000000	      2.76553440	    -15.78222646	     -4.99600660	     -7.38702691
      0.38750000	      3.49498515	      3.55168880	      7.03683089	     -0.37611313	      1.04504397	      0.27257209	     18.01311061	     -7.67771106	    -10.57824182	    -52.32834424	     16.35048564	     -9.86802029	     -4.25451563	     -6.40157446	      8.30643060	      6.78472746	     -6.28726415	     -0.40346248	     -1.28697301	      8.04258002	      0.00000000	     -0.00974950	      0.00000000	      2.90689135	    -15.77502035	     -4.58909221	     -7.58549575
